<?xml version="1.0" encoding="UTF-8" standalone="no"?>
<svg
   style="isolation:isolate"
   viewBox="0 0 96 96"
   version="1.1"
   id="svg3"
   sodipodi:docname="bath_v2.svg"
   inkscape:version="1.3.2 (091e20e, 2023-11-25)"
   xmlns:inkscape="http://www.inkscape.org/namespaces/inkscape"
   xmlns:sodipodi="http://sodipodi.sourceforge.net/DTD/sodipodi-0.dtd"
   xmlns="http://www.w3.org/2000/svg"
   xmlns:svg="http://www.w3.org/2000/svg">
  <sodipodi:namedview
     id="namedview3"
     pagecolor="#ffffff"
     bordercolor="#000000"
     borderopacity="0.25"
     inkscape:showpageshadow="2"
     inkscape:pageopacity="0.0"
     inkscape:pagecheckerboard="0"
     inkscape:deskcolor="#d1d1d1"
     inkscape:zoom="1.2811035"
     inkscape:cx="-55.420969"
     inkscape:cy="-3.5125967"
     inkscape:window-width="1472"
     inkscape:window-height="1024"
     inkscape:window-x="566"
     inkscape:window-y="25"
     inkscape:window-maximized="0"
     inkscape:current-layer="svg3" />
  <defs
     id="defs1" />
  <g
     id="g3">
    <circle
       vector-effect="non-scaling-stroke"
       cx="48"
       cy="48"
       r="44"
       fill="rgb(150,217,242)"
       id="circle1" />
  </g>
  <g
     id="g2"
     transform="matrix(0.00466666,0,0,-0.00466666,0.56390544,94.327898)"
     style="display:inline;fill-opacity:1;fill:#ffffff">
    <g
       id="g4"
       style="fill-opacity:1;fill:#ffffff">
      <g
         id="g5"
         style="fill-opacity:1;fill:#ffffff">
        <path
           d="m 12531.6,5051.8 c -86.7,5.1 -130,-58.2 -130,-130 v -348.6 c 0,-227.9 174.6,-390 390,-390 H 13948 c 238.6,0 390,174.6 390,390 v 353.9 c 0,74.6 -52,129.8 -136.9,129.6 -93.8,-0.3 -1669.5,-4.9 -1669.5,-4.9"
           style="fill:#ffffff;fill-opacity:1;fill-rule:nonzero;stroke:none"
           id="path16" />
        <path
           d="m 6804.33,4929.8 v -356.6 c 0,-215.4 150.83,-390 390,-390 h 1097.19 c 232.08,0 390,174.6 390,390 v 348.6 c 0,71.8 -58.2,130 -130,130 0,0 -1535.73,2.5 -1610.12,7.6 -74.42,5 -137.07,-55 -137.07,-129.6"
           style="fill:#ffffff;fill-opacity:1;fill-rule:nonzero;stroke:none"
           id="path18" />
        <path
           d="m 14344.3,7811.54 c -1858.9,0 -4023.3,56.16 -5106.14,285.53 C 8052,8348.83 5592.69,9368.21 3627.71,10230.8 c -87.99,38.6 -184.8,-31.9 -175.15,-127.5 L 3599.45,8648.16 C 3720.98,6774.98 5208.18,5251.12 6914.74,5251.12 h 6327.86 c 61.9,-2.22 122.8,-3.38 182.9,-3.38 929.5,0 1646,269.61 2131.5,802.56 355.9,390.71 595.4,926.07 728.2,1628.08 14.8,78.35 -45.2,151.01 -124.8,149.95 -357.2,-5.01 -1261.3,-16.79 -1816.1,-16.79"
           style="fill:#ffffff;fill-opacity:1;fill-rule:nonzero;stroke:none"
           id="path22"
           transform="scale(1.03631)" />
        <path
           d="m 16289,8513.23 c -14.1,328.88 -282.9,587.61 -612.1,589.16 -1078.6,3.46 -4703.4,46.16 -6062.08,448.71 -1212.71,358.63 -4032.99,1968.3 -5606.21,2895.9 -186.58,110 -399.17,168.2 -614.7,168.2 -475.38,0 -909.12,-279.4 -1104.85,-711.9 -134.24,-296.1 -144.6,-626.6 -29.2,-930.5 115.37,-303.7 342.13,-543.8 638.57,-675.9 122.25,-54.7 253.99,-113.4 392.33,-174.6 C 4831.96,9441.07 7598.1,8259.88 8807.64,8003.17 9817.9,7789.24 11932.6,7741.8 13607.9,7741.8 c 685.6,0 1297.8,7.93 1730.4,15.59 131.2,2.38 250,4.75 354.3,7.12 166.5,3.65 320.9,72.35 434.7,193.68 113.9,121.43 172.7,279.98 165.8,446.57 l -4.1,108.47"
           style="fill:#ffffff;fill-opacity:1;fill-rule:nonzero;stroke:none"
           id="path26"
           transform="scale(1.09614)" />
        <path
           d="m 15447.5,12502.4 c 470.1,0 852.5,382.4 852.5,852.5 0,470.1 -382.4,852.6 -852.5,852.6 -470.1,0 -852.6,-382.5 -852.6,-852.6 0,-470.1 382.5,-852.5 852.6,-852.5"
           style="fill:#ffffff;fill-opacity:1;fill-rule:nonzero;stroke:none"
           id="path30"
           transform="scale(1.01192)" />
        <path
           d="m 12567,14116.9 c 537.7,0 975,437.3 975,975 0,537.6 -437.3,975 -975,975 -537.6,0 -975,-437.4 -975,-975 0,-537.7 437.4,-975 975,-975"
           style="fill:#ffffff;fill-opacity:1;fill-rule:nonzero;stroke:none"
           id="path32" />
        <path
           d="m 13099,12965 c -293.3,0 -532,-238.6 -532,-531.9 0,-293.3 238.7,-531.9 532,-531.9 293.2,0 531.8,238.6 531.8,531.9 0,293.3 -238.6,531.9 -531.8,531.9"
           style="fill:#ffffff;fill-opacity:1;fill-rule:nonzero;stroke:none"
           id="path34" />
        <path
           d="m 14611.2,10709.6 c 234.7,0 425.7,191 425.7,425.7 0,234.7 -191,425.7 -425.7,425.7 -234.8,0 -425.8,-191 -425.8,-425.7 0,-234.7 191,-425.7 425.8,-425.7"
           style="fill:#ffffff;fill-opacity:1;fill-rule:nonzero;stroke:none"
           id="path36" />
      </g>
    </g>
  </g>
</svg>
