<svg xmlns="http://www.w3.org/2000/svg" viewBox="0 0 96 96"><defs><style>.cls-1{fill:#fff;}</style></defs><title>icon</title>
<g id="Vectorized">

<ellipse ry="44" rx="44" id="svg_4" cy="48" cx="48" fill="#dd7884"/>
<rect class="cls-1" x="37.38" y="30.1" width="21.18" height="5.66" rx="1.44"/>
<path class="cls-1" d="M50.19,20a6.86,6.86,0,0,1,.21-1.42,2.46,2.46,0,0,0,.23-.53,2.31,2.31,0,0,0-.46-2.33,2.89,2.89,0,0,0-1.63-.87,2.63,2.63,0,0,0-.57-.05,2.75,2.75,0,0,0-.57.05,2.89,2.89,0,0,0-1.63.87A2.31,2.31,0,0,0,45.32,18a2,2,0,0,0,.23.53,6.66,6.66,0,0,1,.2,1.41c-4,.88-7,4.11-7,8H57.21C57.21,24.06,54.22,20.83,50.19,20Z"/>
<path class="cls-1" d="M62,73.37C61.17,68.89,59.83,61,59.83,57.6c0-3.94,1-15.8,1-15.8a2.54,2.54,0,0,0-1.53-2.09c-1-.55-2-1.09-2.89-1.68l-.14-.09H39.66l-.13.09c-.92.59-1.91,1.13-2.9,1.68A2.54,2.54,0,0,0,35.1,41.8s1.42,12.14,1.42,16.08c0,3.38-1.52,10.71-2.46,14.95a5.05,5.05,0,0,0,2.41,5.51A22.92,22.92,0,0,0,48,81.25a25.41,25.41,0,0,0,11.25-2.39A5.1,5.1,0,0,0,62,73.37Zm-10.86.86a.9.9,0,0,1-.9.9H46.88a.9.9,0,0,1-.9-.9V74.1a.9.9,0,0,1,.9-.9h3.34a.9.9,0,0,1,.9.9Zm0-5.13a.9.9,0,0,1-.9.89H46.88a.9.9,0,0,1-.9-.89V69a.91.91,0,0,1,.9-.9h3.34a.91.91,0,0,1,.9.9Zm0-5a.91.91,0,0,1-.9.9H46.88a.91.91,0,0,1-.9-.9V64a.9.9,0,0,1,.9-.89h3.34a.9.9,0,0,1,.9.89Zm0-5a.9.9,0,0,1-.9.9H46.88a.9.9,0,0,1-.9-.9V59a.9.9,0,0,1,.9-.9h3.34a.9.9,0,0,1,.9.9Zm0-5a.9.9,0,0,1-.9.89H46.88a.9.9,0,0,1-.9-.89V54a.91.91,0,0,1,.9-.9h3.34a.91.91,0,0,1,.9.9Zm0-5.14a.91.91,0,0,1-.9.9H46.88A.91.91,0,0,1,46,49v-.14a.9.9,0,0,1,.9-.89h3.34a.9.9,0,0,1,.9.89Zm0-5a.9.9,0,0,1-.9.9H46.88a.9.9,0,0,1-.9-.9v-.13a.9.9,0,0,1,.9-.9h3.34a.9.9,0,0,1,.9.9Z"/>
</g></svg>