<?xml version="1.0" encoding="UTF-8" standalone="no"?>
<svg xmlns="http://www.w3.org/2000/svg" xmlns:xlink="http://www.w3.org/1999/xlink" style="isolation:isolate" viewBox="0 0 96 96">
<defs></defs>
<g>
<circle vector-effect="non-scaling-stroke" cx="48" cy="48" r="44" fill="rgb(150,217,242)"/>
<path d=" M 37.44 61.44 C 37.385 57.313 33.997 54.01 29.87 54.06 L 19.5 54.06 C 20.004 62.865 27.29 69.748 36.11 69.75 L 37.44 69.75 C 37.44 69.44 37.44 69.13 37.44 68.82 L 37.44 61.44 Z " fill="rgb(255,255,255)"/>
<path d=" M 59.75 61.45 L 59.75 68.69 C 59.73 68.993 59.73 69.297 59.75 69.6 L 60.12 69.6 C 68.797 69.616 75.981 62.862 76.5 54.2 L 67.21 54.2 C 63.149 54.144 59.81 57.389 59.75 61.45 Z " fill="rgb(255,255,255)"/>
<path d=" M 76.5 37.86 L 76.5 34.49 C 76.44 29.882 72.658 26.194 68.05 26.25 L 28 26.25 C 23.392 26.194 19.61 29.882 19.55 34.49 L 19.55 37.86 L 30.33 37.86 L 30.33 43.14 L 19.5 43.14 L 19.5 52 L 31.11 52 C 35.718 51.944 39.5 55.632 39.56 60.24 L 39.56 68.48 C 39.579 68.813 39.579 69.147 39.56 69.48 L 57.5 69.48 C 57.481 69.147 57.481 68.813 57.5 68.48 L 57.5 60.25 C 57.526 58.027 58.438 55.905 60.034 54.357 C 61.629 52.808 63.777 51.96 66 52 L 76.5 52 L 76.5 43.14 L 65.32 43.14 L 65.32 37.86 L 76.5 37.86 Z  M 47.69 33 C 34.74 33 24.25 31.84 24.25 30.4 C 24.25 28.96 34.74 27.81 47.69 27.81 C 60.64 27.81 71.13 29 71.13 30.44 C 71.13 31.88 60.63 33 47.69 33 Z " fill="rgb(255,255,255)"/>
</g></svg>