<svg viewBox="0 0 500 500" radius="4" size="20" width="20px" height="20px" version="1.1" xmlns="http://www.w3.org/2000/svg">
<g fill="white"><path d="M412.55,122.16c-17.11-17.46-38.19-9.37-55.3,8.09l-150,175.17a10.59,10.59,0,0,1-16.33.08l-50.71-55.25c-17.11-17.46-34.89-19.46-52-2S77.87,286.4,95,303.85L164.69,375a43.19,43.19,0,0,0,62,0l177.69-193C421.46,164.48,429.66,139.61,412.55,122.16Z"/></g>
<g fill="#17CF48"><path d="M0,0V500H500V0ZM404.09,181.69,226.4,374.7a43.19,43.19,0,0,1-62,0L94.73,303.6C77.62,286.15,70.89,265.46,88,248s34.89-15.46,52,2l50.71,55.25a10.59,10.59,0,0,0,16.33-.08L357,130c17.11-17.46,38.19-25.55,55.3-8.09S421.21,164.23,404.09,181.69Z"/></g>
</svg>