<?xml version="1.0" encoding="UTF-8" standalone="no"?>
<svg xmlns="http://www.w3.org/2000/svg" xmlns:xlink="http://www.w3.org/1999/xlink" style="isolation:isolate" viewBox="0 0 96 96"><defs></defs>
<g>
<circle vector-effect="non-scaling-stroke" cx="48" cy="48" r="44" fill="rgb(229,201,167)"/>
<path d=" M 37.1 24.88 L 58.89 24.88 C 59.525 24.88 60.04 25.395 60.04 26.03 L 60.04 30.41 C 60.04 31.045 59.525 31.56 58.89 31.56 L 37.1 31.56 C 36.465 31.56 35.95 31.045 35.95 30.41 L 35.95 26.03 C 35.95 25.395 36.465 24.88 37.1 24.88 Z " fill="rgb(255,255,255)"/>
<path d=" M 57.59 33.05 L 38.41 33.05 C 34.891 33.061 32.041 35.911 32.03 39.43 L 32.03 64.74 C 32.041 68.259 34.891 71.109 38.41 71.12 L 57.59 71.12 C 61.109 71.109 63.959 68.259 63.97 64.74 L 63.97 39.43 C 63.959 35.911 61.109 33.061 57.59 33.05 L 57.59 33.05 L 57.59 33.05 Z  M 48.03 62.11 C 42.507 62.11 38.03 57.633 38.03 52.11 C 38.03 46.587 42.507 42.11 48.03 42.11 C 53.553 42.11 58.03 46.587 58.03 52.11 C 58.03 57.633 53.553 62.11 48.03 62.11 Z " fill="rgb(255,255,255)"/>
<path d=" M 49.5 45.92 L 46.5 45.92 L 46.5 50.31 L 42.26 50.31 L 42.26 53.31 L 46.5 53.31 L 46.5 57.71 L 49.5 57.71 L 49.5 53.31 L 53.73 53.31 L 53.73 50.31 L 49.5 50.31 L 49.5 45.92 L 49.5 45.92 L 49.5 45.92 Z " fill="rgb(255,255,255)"/>
</g></svg>