<?xml version="1.0" encoding="UTF-8" standalone="no"?><!-- Generator: Gravit.io -->
<svg xmlns="http://www.w3.org/2000/svg" xmlns:xlink="http://www.w3.org/1999/xlink" style="isolation:isolate" viewBox="0 0 96 96">
<defs></defs><g>
<circle vector-effect="non-scaling-stroke" cx="48" cy="48" r="44" fill="rgb(87,130,186)"/>
<path d=" M 65 45.7 C 66.311 54.065 63.563 62.555 57.598 68.565 C 51.634 74.575 43.165 77.388 34.79 76.14 C 34.541 76.085 34.351 75.883 34.312 75.631 C 34.272 75.38 34.39 75.129 34.61 75 C 46.311 68.84 51.729 55.034 47.34 42.56 C 47.13 41.95 46.9 41.36 46.65 40.78 C 43.514 33.59 37.373 28.144 29.86 25.89 C 29.607 25.802 29.437 25.563 29.437 25.295 C 29.437 25.027 29.607 24.788 29.86 24.7 C 30.938 24.318 32.041 24.007 33.16 23.77 C 45.447 21.222 57.855 27.555 63 39 C 63.65 40.443 64.166 41.942 64.54 43.48 C 64.71 44.21 64.86 45 65 45.7 Z " fill="rgb(255,255,255)"/>
<path d=" M 32.88 51.3 C 32.88 51.3 32.33 54.44 32.17 54.8 C 32.01 55.16 29.05 56.5 29 56.66 C 28.95 56.82 30.85 57.86 31.08 58.17 C 31.31 58.48 30.87 61.24 30.94 61.45 C 31.01 61.66 33.73 59.63 34.13 59.45 C 34.53 59.27 37.91 60.31 38.8 60.45 C 39.69 60.59 37.8 57.55 37.68 56.99 C 37.56 56.43 39.68 54.54 39.78 53.99 C 39.88 53.44 36.07 54.06 35.78 53.9 C 35.49 53.74 33.49 51.1 33.33 51.03 C 33.227 50.983 33.11 50.972 33 51 C 32.938 51.016 32.887 51.06 32.864 51.12 C 32.84 51.179 32.846 51.246 32.88 51.3 Z " fill-rule="evenodd" fill="rgb(255,255,255)"/>
<path d=" M 63 19.86 C 63 19.86 62.46 23 62.3 23.36 C 62.3 23.36 59.18 25.06 59.11 25.22 C 59.11 25.22 60.96 26.42 61.19 26.73 C 61.42 27.04 61 29.8 61.08 30 C 61.16 30.2 63.86 28.18 64.27 28 C 64.68 27.82 68.05 28.86 68.94 29 C 69.83 29.14 67.94 26.09 67.82 25.53 C 67.7 24.97 69.82 23.08 69.92 22.53 C 70.02 21.98 66.21 22.6 65.92 22.44 C 65.63 22.28 63.62 19.64 63.47 19.57 C 63.366 19.535 63.254 19.535 63.15 19.57 C 63.088 19.583 63.035 19.623 63.006 19.679 C 62.977 19.736 62.975 19.802 63 19.86 Z " fill-rule="evenodd" fill="rgb(255,255,255)"/>
<path d=" M 70.34 56.52 C 70.34 56.52 69.79 59.66 69.63 60.02 C 69.63 60.02 66.51 61.73 66.44 61.89 C 66.44 61.89 68.29 63.08 68.52 63.4 C 68.52 63.4 68.31 66.47 68.38 66.67 C 68.38 66.67 71.17 64.86 71.58 64.67 C 71.58 64.67 75.35 65.53 76.24 65.67 C 76.24 65.67 75.24 62.77 75.13 62.2 C 75.13 62.2 77.13 59.75 77.22 59.2 C 77.22 59.2 73.52 59.27 73.22 59.12 C 73.22 59.12 70.93 56.31 70.77 56.25 C 70.667 56.21 70.553 56.21 70.45 56.25 C 70.398 56.27 70.357 56.31 70.337 56.361 C 70.316 56.412 70.317 56.47 70.34 56.52 Z " fill-rule="evenodd" fill="rgb(255,255,255)"/>
<path d=" M 22.07 33 C 22.07 33 21.31 35 21.16 35.27 C 20.382 35.594 19.587 35.877 18.78 36.12 C 18.72 36.22 19.87 37.12 19.99 37.39 C 19.874 38.132 19.704 38.864 19.48 39.58 C 20.299 39.295 21.101 38.961 21.88 38.58 C 22.903 38.935 23.905 39.349 24.88 39.82 C 25.46 40.01 24.54 37.74 24.57 37.35 C 24.6 36.96 26.25 36 26.36 35.7 C 26.47 35.4 23.86 35.28 23.68 35.13 C 23.5 34.98 22.49 33 22.39 32.9 C 22.323 32.869 22.247 32.869 22.18 32.9 C 22.127 32.91 22.084 32.948 22.07 33 Z " fill-rule="evenodd" fill="rgb(255,255,255)"/>
</g></svg>