<?xml version="1.0" encoding="UTF-8" standalone="no"?><!-- Generator: Gravit.io -->
<svg xmlns="http://www.w3.org/2000/svg" xmlns:xlink="http://www.w3.org/1999/xlink" style="isolation:isolate" viewBox="0 0 96 96">
<defs></defs>
<g>
<circle vector-effect="non-scaling-stroke" cx="48" cy="48" r="44" fill="rgb(229,201,167)"/>
<path d=" M 52.78 63.41 L 52.78 18.72 C 52.78 16.08 50.64 13.94 48 13.94 C 45.36 13.94 43.22 16.08 43.22 18.72 L 43.22 22.23 L 46.13 22.23 C 46.54 22.219 46.884 22.54 46.9 22.95 L 46.9 23.16 C 46.895 23.356 46.812 23.542 46.669 23.677 C 46.527 23.813 46.336 23.885 46.14 23.88 L 43.22 23.88 L 43.22 26.4 L 46.15 26.4 C 46.562 26.394 46.904 26.718 46.92 27.13 L 46.92 27.33 C 46.909 27.74 46.57 28.066 46.16 28.06 L 43.22 28.06 L 43.22 30.46 L 46.22 30.46 C 46.632 30.454 46.974 30.778 46.99 31.19 L 46.99 31.39 C 46.985 31.589 46.901 31.778 46.756 31.915 C 46.612 32.051 46.419 32.125 46.22 32.12 L 43.22 32.12 L 43.22 34.82 L 46.13 34.82 C 46.542 34.814 46.884 35.138 46.9 35.55 L 46.9 35.75 C 46.897 35.948 46.816 36.137 46.673 36.274 C 46.53 36.411 46.338 36.485 46.14 36.48 L 43.22 36.48 L 43.22 39 L 46.15 39 C 46.349 38.995 46.542 39.069 46.686 39.205 C 46.831 39.342 46.915 39.531 46.92 39.73 L 46.92 39.93 C 46.909 40.34 46.57 40.666 46.16 40.66 L 43.22 40.66 L 43.22 43.11 L 46.22 43.11 C 46.63 43.099 46.974 43.42 46.99 43.83 L 46.99 44 C 46.985 44.198 46.9 44.386 46.756 44.521 C 46.611 44.656 46.418 44.728 46.22 44.72 L 43.22 44.72 L 43.22 47.24 L 46.22 47.24 C 46.426 47.232 46.626 47.308 46.773 47.452 C 46.921 47.596 47.003 47.794 47 48 L 47 48.2 C 46.997 48.398 46.916 48.587 46.773 48.724 C 46.63 48.861 46.438 48.935 46.24 48.93 L 43.24 48.93 L 43.24 51.33 L 46.24 51.33 C 46.44 51.322 46.634 51.395 46.779 51.532 C 46.924 51.67 47.007 51.86 47.01 52.06 L 47.01 52.26 C 46.999 52.67 46.66 52.996 46.25 52.99 L 43.25 52.99 L 43.25 63.41 C 39.233 65.596 37.211 70.228 38.339 74.66 C 39.467 79.092 43.457 82.194 48.03 82.194 C 52.603 82.194 56.593 79.092 57.721 74.66 C 58.849 70.228 56.827 65.596 52.81 63.41 L 52.78 63.41 Z  M 48 79.09 C 44.628 78.978 41.816 76.477 41.312 73.141 C 40.807 69.806 42.753 66.585 45.94 65.48 L 45.94 56.11 L 50.06 56.11 L 50.06 65.48 C 53.247 66.585 55.193 69.806 54.688 73.141 C 54.184 76.477 51.372 78.978 48 79.09 Z " fill="rgb(255,255,255)"/>
</g></svg>