<svg xmlns="http://www.w3.org/2000/svg" viewBox="0 0 96 96"><defs><style>.cls-1{fill:#fff;fill-rule:evenodd;}</style></defs>
<title>icon</title><g id="Vectorized">
<ellipse ry="44" rx="44" id="svg_4" cy="48" cx="48" fill="#dd7884"/>
<path class="cls-1" d="M51.34,42.67l-.15.27c-.24.39-.45.8-.75,1.2l-.09.12-.25,0a.85.85,0,0,1-.22,0,7.68,7.68,0,0,0-4.57-1.31,15.15,15.15,0,0,1,1-1.31A13.19,13.19,0,0,1,50,38.25a6.71,6.71,0,0,1,.74-.34c.7-.23,1.24-.2,1.53.09C52.85,38.6,52.59,40.43,51.34,42.67Z"/><path class="cls-1" d="M78.72,55C76.08,67,63.33,76.1,48,76.1S19.92,67,17.28,55Z"/><path class="cls-1" d="M79.12,50.68a0,0,0,0,1,0,0,.62.62,0,0,1,0,.27c-.07.88-.16,1.75-.31,2.61H17.18Q17,52.31,16.88,51a.61.61,0,0,1,0-.27v0a2.14,2.14,0,0,1,1.71-2,3.13,3.13,0,0,1,.44,0H77a3.27,3.27,0,0,1,.45,0A2.15,2.15,0,0,1,79.12,50.68Z"/><path class="cls-1" d="M69.34,43.8h0c-.55-3.19-4.59-5.66-9.51-5.66-.32,0-.66,0-1,0L58,37.78l-.48-.22-.48-.2L70.58,22a1.25,1.25,0,0,0-.11-1.78,1.25,1.25,0,0,0-1.77.12l-14,15.87,0,0c-2.49-1.66-7.36.07-10.52,3.67A15.19,15.19,0,0,0,41.53,44h0a8,8,0,0,1,2.25-.72A17.75,17.75,0,0,1,45.52,41c2.83-3.22,6.2-4.9,7.51-3.74s.26,4.15-2.11,7.14c1.23.15,2.58-.8,3.57.93,1-1.93,2.88-5.32,2.23-6.85l.33-.89c.84,1,.71,3.19-.2,5.21-.15.33-.31.8-.48,1.15s-.27.59-.42.87-.45.67-.65,1l-.91.77-.45-.79c-.54-.93-1.12-.85-2-.73a5.16,5.16,0,0,1-.89.1H51l-.28,0a3.3,3.3,0,0,0-.83,0h-.16l-.16-.09A7.72,7.72,0,0,0,45.27,44a9.83,9.83,0,0,0-1.55.12,7.58,7.58,0,0,0-2,.66l-.12.05H40.7l.11-.67c0-.09.07-.26.12-.35a4.43,4.43,0,0,1,.17-.47,14.66,14.66,0,0,1,2.48-3.74c1.61-1.82,3-3.27,5-4a13.93,13.93,0,0,0-1.59,0,27.13,27.13,0,0,0-10.09,1.81c-.42,0-.85-.06-1.3-.06-5.38,0-9.86,2.88-10.79,6.67a7.41,7.41,0,0,0-4.15,3H76A8,8,0,0,0,69.34,43.8Z"/></g></svg>