<svg xmlns="http://www.w3.org/2000/svg" viewBox="0 0 24 24">
  <path d="M15 13.5V5q0-.825-.588-1.412Q13.825 3 13 3t-1.412.588Q11 4.175 11 5v8.5q-.825.6-1.262 1.475-.438.875-.438 1.925 0 1.875 1.262 3.188Q11.825 21 13 21q1.175 0 2.438-1.312Q16.7 18.375 16.7 16.5q0-1.05-.438-1.925Q15.825 14.1 15 13.5Zm-2 5.5q-.85 0-1.425-.612-.575-.613-.575-1.363 0-.65.362-1.162.363-.513.988-.863V5q0-.275.175-.463Q12.7 4.35 13 4.35t.537.187Q13.7 4.725 13.7 5v10q.6.35.963.862.362.513.362 1.163 0 .75-.575 1.362Q13.875 19 13 19Z"/>
</svg>