<svg width="60" height="60" viewBox="0 0 60 60" fill="none" xmlns="http://www.w3.org/2000/svg">
  <!-- Blue background -->
  <rect width="60" height="60" fill="rgb(81,166,251)" />

  <path d="M41.7057 34.8579C38.5929 37.9703 36.8801 42.1037 36.8801 46.5006V48.979C40.6516 47.8509 44.1267 45.8007 46.9676 42.96C50.5003 39.4277 52.806 34.9073 53.646 30.0576C49.158 30.2964 44.3572 32.1984 41.7057 34.8579Z" fill="white"/>
  <path d="M22.881 46.5008C22.881 42.1039 21.1682 37.9623 18.0555 34.8581C15.4451 32.248 10.776 30.3707 6.354 30.0825C7.19394 34.9323 9.49965 39.4444 13.0241 42.9685C15.7992 45.7433 19.1919 47.7688 22.881 48.9133V46.5008Z" fill="white"/>
  <path d="M43.6078 21.7991C43.1549 21.7991 42.7844 21.4286 42.7844 20.9757C42.7844 20.5228 43.1549 20.1523 43.6078 20.1523H54V18.8596C54 17.3117 54 16.5377 53.8847 15.9037C53.6212 14.4627 52.9295 13.1453 51.8919 12.1079C50.8626 11.0704 49.5368 10.3788 48.0957 10.1153C47.4534 10 46.6794 10 45.1395 10H14.8605C13.3124 10 12.5383 10 11.9043 10.1153C10.4632 10.3788 9.14565 11.0704 8.10808 12.1079C7.07874 13.1371 6.38703 14.4627 6.12352 15.9037C6 16.5459 6 17.3199 6 18.8596V20.1523H16.1534C16.6063 20.1523 16.9768 20.5228 16.9768 20.9757C16.9768 21.4286 16.6063 21.7991 16.1534 21.7991H6V25.9984C6 26.8053 6.04117 27.6122 6.12352 28.4191C10.3644 28.6332 15.8157 30.2882 19.2249 33.697C22.6341 37.1058 24.528 41.6674 24.528 46.5089V49.366C26.3067 49.7859 28.1431 50 29.9959 50C31.8487 50 33.5286 49.7942 35.2331 49.4154V46.5089C35.2331 41.6674 37.1189 37.1223 40.5363 33.697C43.9537 30.2717 49.5944 28.5755 53.8765 28.4109C53.9588 27.6122 54 26.8135 54 26.0066V21.8073H48.8039H43.6078V21.7991Z" fill="white"/>
</svg>
