<svg viewBox="0 0 500 500" radius="4" size="20" width="20px" height="20px" version="1.1" xmlns="http://www.w3.org/2000/svg">
<g fill="white"><path d="M395.17,178.62S352.54,228.51,334.71,241c-22.94,16.09-44,7.78-49.51,10.13-1.55.66-5.45,4.76-10.26,10.34l1.54,1.44h0l74.74,70.89a31.19,31.19,0,1,1-45.6,42.29l-61.46-75.39-65,76.53A29.65,29.65,0,1,1,136.79,336l74.82-67.18-.54-.53s1.57-1.27,4.14-3.38l-19.83-24.32c-21,4.52-48.07-5.56-68.59-27.68-27.25-29.37-32.51-68.66-12-87.69s59.3-10.85,86.54,18.52c20.28,21.85,28.57,49.35,22.62,69.83l24.4,22.93c5.74-5.29,9.93-9.58,10.33-11.16,1.38-5.45-9.17-24,10-48.61s60.6-62.28,60.6-62.28a8.8,8.8,0,0,1,13,0c3,3.33,2.5,9-.61,12.16,0,0-59.66,46.37-45.62,59.36,15.94,14.75,59.13-45.82,59.13-45.82a8.79,8.79,0,0,1,13,.06c3,3.33,2.5,9-.61,12.15,0,0-56.56,49.37-44.39,61.2,14.19,13.81,58.7-46,58.7-46,2.92-3,7.78-5.71,11.28-3.4C398.4,167.7,399.15,174.53,395.17,178.62Z"/></g>
<g fill="#3E50B4"><path d="M0,0V500H500V0ZM395.17,178.62S352.54,228.51,334.71,241c-22.94,16.09-44,7.78-49.51,10.13-1.55.66-5.45,4.76-10.26,10.34l1.54,1.44h0l74.74,70.89a31.19,31.19,0,1,1-45.6,42.29l-61.46-75.39-65,76.53A29.65,29.65,0,1,1,136.79,336l74.82-67.18-.54-.53s1.57-1.27,4.14-3.38l-19.83-24.32c-21,4.52-48.07-5.56-68.59-27.68-27.25-29.37-32.51-68.66-12-87.69s59.3-10.85,86.54,18.52c20.28,21.85,28.57,49.35,22.62,69.83l24.4,22.93c5.74-5.29,9.93-9.58,10.33-11.16,1.38-5.45-9.17-24,10-48.61s60.6-62.28,60.6-62.28a8.8,8.8,0,0,1,13,0c3,3.33,2.5,9-.61,12.16,0,0-59.66,46.37-45.62,59.36,15.94,14.75,59.13-45.82,59.13-45.82a8.79,8.79,0,0,1,13,.06c3,3.33,2.5,9-.61,12.15,0,0-56.56,49.37-44.39,61.2,14.19,13.81,58.7-46,58.7-46,2.92-3,7.78-5.71,11.28-3.4C398.4,167.7,399.15,174.53,395.17,178.62Z"/></g>
</svg>