<svg xmlns="http://www.w3.org/2000/svg" viewBox="0 0 96 96"><defs><style>.cls-1{fill:#fff;}</style></defs><title>icon</title><g id="Vectorized">
<ellipse ry="44" rx="44" cy="48" cx="48" fill="#7fba87"/>
<path class="cls-1" d="M41.59,26.32c-10.49,1.92-18.69,8.39-21,16.56-2,6.81.12,13.25,4.71,18.18L18.8,69.27c-.28.35.16.78.66.65l13-3.45A34.72,34.72,0,0,0,49.29,70.3c15.22-.29,27.5-9.76,28-21.57C77.87,34.29,60.8,22.82,41.59,26.32Zm-1.2,23.46a2.36,2.36,0,1,1,2.38-2.35A2.36,2.36,0,0,1,40.39,49.78Zm8.42,0a2.36,2.36,0,1,1,2.37-2.35A2.36,2.36,0,0,1,48.81,49.78Zm9,0a2.36,2.36,0,1,1,2.38-2.35A2.36,2.36,0,0,1,57.85,49.78Z"/></g></svg>