<?xml version="1.0" encoding="UTF-8" standalone="no"?><!-- Generator: Gravit.io -->
<svg xmlns="http://www.w3.org/2000/svg" xmlns:xlink="http://www.w3.org/1999/xlink" style="isolation:isolate" viewBox="0 0 96 96"><defs><clipPath id="_clipPath_k1lMvcMqottGxELWRR0yVUzixNZltsQ8">
<rect width="96" height="96"/></clipPath></defs><g clip-path="url(#_clipPath_k1lMvcMqottGxELWRR0yVUzixNZltsQ8)"><g>
<ellipse ry="44" rx="44" cy="48" cx="48" fill="#96D9F2"/>
<path d=" M 25.495 28.048 C 27.355 26.538 32.165 23.388 41.115 22.138 C 31.515 23.358 27.175 26.428 25.495 28.048 Z  M 50.315 21.648 C 60.255 21.878 65.945 24.648 68.725 26.498 C 65.925 24.428 60.395 21.788 50.315 21.648 Z  M 70.515 28.068 L 70.515 28.068 C 70.568 28.167 70.612 28.271 70.645 28.378 C 70.628 28.265 70.584 28.159 70.515 28.068 Z " fill="rgb(113,199,240)"/><path d=" M 68.815 47.228 C 67.826 48.501 66.325 49.273 64.715 49.338 C 61.595 49.548 59.475 48.828 58.375 47.198 L 58.745 47.118 C 64.825 45.778 68.885 43.368 68.875 40.658 C 68.875 36.548 59.495 33.278 47.985 33.358 C 36.475 33.438 27.165 36.828 27.195 40.938 C 27.195 43.578 31.085 45.868 36.905 47.138 C 35.655 48.828 33.465 49.558 30.425 49.318 C 29.194 49.237 28.054 48.642 27.285 47.678 C 23.945 43.738 23.905 34.048 24.155 30.138 C 24.16 30.048 24.16 29.958 24.155 29.868 C 24.155 29.708 24.155 29.558 24.155 29.418 C 24.212 28.827 24.47 28.273 24.885 27.848 C 26.755 26.038 32.835 21.368 48.635 21.138 C 63.635 20.928 69.365 26.138 70.875 27.718 C 71.043 27.958 71.146 28.237 71.175 28.528 L 71.175 28.728 L 71.175 29.148 C 71.175 29.418 71.175 29.668 71.235 29.838 C 71.295 30.008 71.235 29.988 71.235 30.078 L 71.235 30.078 C 71.235 30.078 71.235 30.158 71.235 30.208 C 71.235 30.208 71.235 30.518 71.305 30.698 C 71.305 30.698 71.305 30.978 71.355 31.128 C 71.865 34.818 72.035 43.138 68.815 47.228 Z " fill="rgb(255,255,255)"/><path d=" M 68.815 47.228 C 67.826 48.501 66.325 49.273 64.715 49.338 C 61.595 49.548 59.475 48.828 58.375 47.198 C 58.332 47.153 58.295 47.103 58.265 47.048 C 57.612 45.855 57.343 44.49 57.495 43.138 C 57.586 41.892 56.925 40.711 55.815 40.138 C 53.361 38.859 50.641 38.174 47.875 38.138 C 45.084 38.138 42.337 38.825 39.875 40.138 C 38.854 40.664 38.208 41.71 38.195 42.858 C 38.201 44.274 37.802 45.662 37.045 46.858 C 37.004 46.92 36.957 46.977 36.905 47.028 C 35.655 48.718 33.465 49.448 30.425 49.208 C 29.194 49.127 28.054 48.532 27.285 47.568 C 23.715 43.468 24.415 32.758 24.715 29.538 L 24.715 29.538 C 24.71 29.465 24.71 29.391 24.715 29.318 C 24.71 29.248 24.71 29.178 24.715 29.108 C 24.732 29.035 24.759 28.964 24.795 28.898 C 24.806 28.854 24.827 28.814 24.855 28.778 C 24.902 28.698 24.963 28.627 25.035 28.568 L 25.105 28.458 C 25.162 28.38 25.226 28.307 25.295 28.238 L 25.485 28.048 C 27.165 26.428 31.485 23.358 41.105 22.158 C 41.245 22.158 41.385 22.158 41.525 22.098 C 43.889 21.826 46.265 21.676 48.645 21.648 C 49.215 21.648 49.775 21.648 50.315 21.648 C 60.395 21.788 65.925 24.428 68.725 26.498 L 68.725 26.498 C 69.35 26.955 69.932 27.467 70.465 28.028 L 70.465 28.028 C 70.523 28.115 70.561 28.214 70.575 28.318 L 70.575 28.318 C 70.646 28.674 70.693 29.035 70.715 29.398 C 70.715 29.568 70.715 29.728 70.715 29.858 C 71.255 32.858 72.395 42.788 68.815 47.228 Z " fill="none"/><path d=" M 76.915 63.758 L 72.315 37.698 C 72.235 41.388 71.595 45.378 69.595 47.858 C 68.423 49.344 66.665 50.249 64.775 50.338 C 64.405 50.338 64.035 50.338 63.685 50.338 C 60.685 50.338 58.565 49.398 57.415 47.528 C 56.65 46.156 56.328 44.58 56.495 43.018 C 56.573 42.16 56.122 41.341 55.355 40.948 C 50.649 38.487 45.03 38.521 40.355 41.038 C 39.67 41.4 39.234 42.104 39.215 42.878 C 39.241 44.519 38.778 46.131 37.885 47.508 C 36.415 49.618 33.885 50.508 30.365 50.278 C 28.868 50.173 27.483 49.448 26.545 48.278 C 24.395 45.738 23.675 41.108 23.545 36.958 L 19.035 64.138 C 18.96 64.572 19.03 65.018 19.235 65.408 C 20.385 67.638 25.915 74.868 48.805 74.868 L 49.055 74.868 C 72.885 74.868 76.455 67.498 76.985 65.258 C 77.01 64.757 76.987 64.255 76.915 63.758 L 76.915 63.758 Z " fill="rgb(255,255,255)"/></g></g></svg>